<svg xmlns="http://www.w3.org/2000/svg" viewBox="0 0 32 26.01"><defs><style>.cls-1{fill:#01579b;}</style></defs><title>Asset 1</title><g id="Layer_2" data-name="Layer 2"><g id="Layer_1-2" data-name="Layer 1"><path class="cls-1" d="M32,3.08a13.13,13.13,0,0,1-3.77,1A6.58,6.58,0,0,0,31.12.48a13.15,13.15,0,0,1-4.17,1.59,6.57,6.57,0,0,0-11.19,6A18.64,18.64,0,0,1,2.23,1.2a6.57,6.57,0,0,0,2,8.76,6.54,6.54,0,0,1-3-.82s0,.05,0,.08a6.57,6.57,0,0,0,5.27,6.44,6.58,6.58,0,0,1-3,.11,6.57,6.57,0,0,0,6.13,4.56,13.17,13.17,0,0,1-8.15,2.81A13.36,13.36,0,0,1,0,23.06,18.58,18.58,0,0,0,10.06,26C22.14,26,28.74,16,28.74,7.33q0-.43,0-.85A13.34,13.34,0,0,0,32,3.08"/></g></g></svg>